:SAMPLES-PER-SECOND 30
:FRAME-RANGE 1-2643
:FULLY-SPECIFIED
:DEGREES
1818
root  52.7024 30.628 -15.4992 174.917 -86.527 -166.804
RightUpLeg  -49.627 -25.7403 -21.4787
RightLeg  47.9148 1.62695 1.59114
RightFoot  1.37431 -3.51303 30.8975
RightToes  7.56698e-010 0 -3.6325e-017
Spine  42.6911 -4.23956 29.4702
Spine1  -11.4854 8.1795 -7.82193
HEad  -17.5339 5.81715 -25.1965
LeftShoulder1  0.257951 2.50628 -19.3015
LeftArm  -19.1034 26.6462 -0.705581
LeftForeArm  -11.0153 -26.0464 -6.14019
LeftHand  0.00254588 2.07038 -0.493882
RightShoulder  10.1853 28.2984 25.6166
RightArm  1.0675 27.1056 8.31219
RightForeArm  15.6366 24.2285 4.36343
RightHand  -0.136642 6.35988 -1.68843
LeftUpLeg  -46.7336 20.6425 20.4356
LeftLeg  87.0908 -0.140442 7.58927
LeftFoot  -11.3647 0.0669685 -5.38755
LeftToes  1.48244e-010 1.61973e-010 3.308e-011
1819
root  53.6444 30.5957 -14.3892 49.9885 -88.1173 -42.5562
RightUpLeg  -45.0896 -30.0499 -23.3247
RightLeg  42.3548 0.907562 0.590569
RightFoot  5.62172 -4.78488 31.5904
RightToes  7.56698e-010 0 -3.6325e-017
Spine  40.2976 -2.42968 30.2257
Spine1  -12.26 9.72928 -8.32009
HEad  -14.0845 2.33878 -23.7513
LeftShoulder1  -0.111003 3.98012 -16.5236
LeftArm  -28.7413 31.8572 3.52519
LeftForeArm  -8.03685 -35.8209 -8.55326
LeftHand  0.022551 2.48098 -1.47888
RightShoulder  11.5457 26.2447 32.6
RightArm  -0.852619 23.0176 10.3437
RightForeArm  15.5778 29.2903 5.50495
RightHand  -0.324131 5.36457 -3.80773
LeftUpLeg  -40.438 17.7789 24.352
LeftLeg  85.716 0.253417 12.6337
LeftFoot  -11.8151 0.0594966 -2.74412
LeftToes  1.48244e-010 1.61973e-010 3.308e-011
1820
root  54.484 30.7943 -13.1209 22.3262 -82.563 -15.9724
RightUpLeg  -37.0143 -34.4859 -26.3014
RightLeg  34.0332 -1.00536 -0.98343
RightFoot  10.8262 -6.39266 32.227
RightToes  7.56698e-010 0 -3.6325e-017
Spine  37.9677 -0.830265 29.88
Spine1  -12.6393 10.5138 -8.10834
HEad  -10.6673 -0.900933 -22.3734
LeftShoulder1  -0.30884 4.93584 -14.6188
LeftArm  -33.2937 33.9159 7.46198
LeftForeArm  -3.88978 -41.361 -10.0958
LeftHand  -0.0046581 2.66482 -0.432241
RightShoulder  12.5041 23.7638 39.5574
RightArm  -0.346428 18.8172 12.9384
RightForeArm  15.8395 33.3286 6.48963
RightHand  -0.280499 5.74444 -3.24456
LeftUpLeg  -34.6472 16.4506 26.8867
LeftLeg  81.7078 1.76434 17.7293
LeftFoot  -12.2742 0.0556758 -2.20237
LeftToes  1.48244e-010 1.61973e-010 3.308e-011
1821
root  55.1837 31.1331 -11.7245 18.8684 -75.5359 -13.1686
RightUpLeg  -25.8307 -37.8987 -30.4482
RightLeg  23.9514 -5.05294 -2.67349
RightFoot  13.2974 -7.38373 33.3646
RightToes  7.56698e-010 0 -3.6325e-017
Spine  35.173 0.819742 28.6538
Spine1  -13.4011 10.7396 -7.81298
HEad  -8.26519 -4.17903 -19.1305
LeftShoulder1  -0.39105 5.46523 -12.8259
LeftArm  -33.3452 32.3075 9.26883
LeftForeArm  -1.5684 -41.8678 -10.1305
LeftHand  -0.0084638 2.83007 -0.325232
RightShoulder  13.0115 21.3854 45.5944
RightArm  3.45086 13.7181 15.452
RightForeArm  14.4597 35.9068 7.26593
RightHand  -0.392341 5.38412 -4.53513
LeftUpLeg  -30.4324 18.0059 28.3082
LeftLeg  76.2118 4.88596 23.2332
LeftFoot  -12.2295 0.0555117 -2.29945
LeftToes  1.48244e-010 1.61973e-010 3.308e-011
1822
root  55.7347 31.5307 -10.2189 17.6406 -66.8089 -11.3127
RightUpLeg  -13.2353 -35.5782 -36.296
RightLeg  15.0695 -14.4037 -2.94163
RightFoot  10.0648 -5.88221 30.8028
RightToes  7.56698e-010 0 -3.6325e-017
Spine  31.4916 2.47703 26.5708
Spine1  -15.0393 10.3507 -7.79359
HEad  -5.23965 -8.90692 -14.37
LeftShoulder1  -0.319106 5.19204 -11.6892
LeftArm  -31.3063 25.3156 9.02782
LeftForeArm  -5.64309 -38.0195 -9.09078
LeftHand  0.014187 3.06124 -1.59763
RightShoulder  12.6535 18.5936 50.0808
RightArm  8.55201 7.86603 17.2159
RightForeArm  11.5893 39.6855 8.56624
RightHand  -0.208989 5.0609 -2.62403
LeftUpLeg  -28.7167 20.8964 27.5089
LeftLeg  68.7343 8.8579 24.3933
LeftFoot  -10.7211 0.073496 -1.69395
LeftToes  1.48244e-010 1.61973e-010 3.308e-011
1823
root  55.9308 32.2009 -8.68988 14.4365 -55.2933 -6.45499
RightUpLeg  0.556662 -27.2484 -39.8887
RightLeg  5.09163 -25.25 -2.7937
RightFoot  -0.602072 -2.34756 24.5761
RightToes  7.56698e-010 0 -3.6325e-017
Spine  26.7717 3.79423 21.1007
Spine1  -14.8928 8.98437 -6.6405
HEad  -2.54225 -14.5768 -9.07986
LeftShoulder1  -0.104761 4.00885 -13.7289
LeftArm  -26.8417 12.8373 8.5405
LeftForeArm  -6.98815 -33.2748 -7.76946
LeftHand  0.0139054 3.00392 -1.52724
RightShoulder  10.8802 15.2257 50.84
RightArm  13.4076 2.38367 19.9062
RightForeArm  13.3372 45.3886 10.4322
RightHand  -0.0277576 5.09583 -0.613544
LeftUpLeg  -28.7798 18.124 25.2106
LeftLeg  62.5566 7.49643 15.8904
LeftFoot  -22.3748 -1.94966 -21.3452
LeftToes  1.48244e-010 1.61973e-010 3.308e-011
1824
root  56.2788 32.3468 -6.87034 12.7385 -43.2465 -3.76257
RightUpLeg  7.54766 -21.1135 -37.6465
RightLeg  6.97198 -21.8953 -7.0423
RightFoot  -11.411 -0.0715599 10.0745
RightToes  7.56698e-010 0 -3.6325e-017
Spine  22.3661 3.92774 16.8108
Spine1  -13.6255 7.50599 -5.17486
HEad  -1.57144 -20.3388 -2.61781
LeftShoulder1  0.26767 2.34353 -16.2913
LeftArm  -19.3112 -5.20548 7.01015
LeftForeArm  -11.5792 -27.1559 -6.4305
LeftHand  0.0146113 2.6021 -1.23378
RightShoulder  9.78711 13.4754 50.4663
RightArm  16.2404 -2.46146 20.494
RightForeArm  18.0276 50.3265 12.1703
RightHand  -0.0241078 5.25066 -0.573953
LeftUpLeg  -29.9706 11.7635 22.9959
LeftLeg  61.7095 6.94838 14.3049
LeftFoot  -25.8322 -2.87597 -23.5338
LeftToes  1.48244e-010 1.61973e-010 3.308e-011
